<svg width="200" height="200" viewBox="0 0 200 200" fill="none" xmlns="http://www.w3.org/2000/svg">
<path fill-rule="evenodd" clip-rule="evenodd" d="M149.882 51.4781C149.882 66.5416 149.882 81.6051 149.882 96.6685C149.987 106.295 149.882 115.918 149.569 125.54C147.572 145.975 137.219 160.307 118.51 168.534C92.802 176.908 72.2002 170.109 56.7059 148.135C54.5525 144.252 52.7743 140.277 51.3726 136.21C50.7451 133.281 50.1177 130.352 49.4902 127.423C49.2813 112.145 49.4902 96.8719 50.1177 81.6051C59.7924 76.0862 69.5179 70.6464 79.2942 65.2863C79.6079 78.256 79.7127 91.2275 79.6079 104.2C79.4021 111.217 79.611 118.121 80.2354 124.913C81.8103 134.072 87.2484 138.884 96.5491 139.348C105.906 139.084 111.866 134.482 114.431 125.54C114.745 120.733 114.849 115.921 114.745 111.104C114.745 100.225 114.745 89.3458 114.745 78.4669C114.541 67.4347 114.75 56.451 115.373 45.5155C126.587 39.2176 137.881 33.0458 149.255 27C149.882 35.1486 150.091 43.3081 149.882 51.4781Z" fill="black"/>
<path fill-rule="evenodd" clip-rule="evenodd" d="M149.882 96.6685C149.882 81.6051 149.882 66.5416 149.882 51.4781C159.806 44.3142 169.636 36.9917 179.373 29.5106C180.209 47.9213 180.209 66.3326 179.373 84.7433C169.474 88.6002 159.644 92.5757 149.882 96.6685Z" fill="black"/>
<path fill-rule="evenodd" clip-rule="evenodd" d="M114.745 78.4669C114.745 89.3458 114.745 100.225 114.745 111.104C103.242 115.707 91.7384 120.31 80.2354 124.913C79.611 118.121 79.4021 111.217 79.6079 104.2C91.3318 95.6072 103.044 87.0292 114.745 78.4669Z" fill="black"/>
<path fill-rule="evenodd" clip-rule="evenodd" d="M49.4902 127.423C50.1177 130.352 50.7451 133.281 51.3726 136.21C41.1158 141.027 30.6582 145.317 20 149.077C29.765 141.707 39.595 134.489 49.4902 127.423Z" fill="black"/>
</svg>
