<svg width="160" height="145" viewBox="0 0 160 145" fill="none" xmlns="http://www.w3.org/2000/svg"><path fill-rule="evenodd" clip-rule="evenodd" d="M129.882 24.478v45.19c.105 9.627 0 19.25-.313 28.872-1.997 20.435-12.35 34.767-31.06 42.994-25.707 8.374-46.309 1.575-61.803-20.399a74.855 74.855 0 0 1-5.333-11.925l-1.883-8.787c-.209-15.278 0-30.551.628-45.818 9.674-5.519 19.4-10.959 29.176-16.319.314 12.97.419 25.942.314 38.914a171.23 171.23 0 0 0 .627 20.713c1.575 9.159 7.013 13.971 16.314 14.435 9.357-.264 15.317-4.866 17.882-13.808.314-4.807.418-9.62.314-14.436V51.467a437.432 437.432 0 0 1 .628-32.952A1668.973 1668.973 0 0 1 129.255 0c.627 8.149.836 16.308.627 24.478z" fill="#7E8590"/><path fill-rule="evenodd" clip-rule="evenodd" d="M129.882 69.668v-45.19a1231.247 1231.247 0 0 0 29.491-21.967c.836 18.41.836 36.822 0 55.232a1249.09 1249.09 0 0 0-29.491 11.925zM94.745 51.467v32.637l-34.51 13.809a171.23 171.23 0 0 1-.627-20.713 56753.228 56753.228 0 0 1 35.137-25.733zM29.49 100.423l1.883 8.787A339.308 339.308 0 0 1 0 122.077a1385.246 1385.246 0 0 1 29.49-21.654z" fill="#7E8590"/></svg>